<svg width="25" height="14" viewBox="0 0 25 14" fill="none" xmlns="http://www.w3.org/2000/svg">
<path d="M15.6639 0.634766H9.33578C8.02731 0.634766 6.96273 1.69934 6.96273 3.00781V3.79883H0.36084L3.34425 12.7503C3.45239 13.0739 3.75438 13.291 4.09509 13.291H8.54476V12.5C8.54476 12.0629 8.89866 11.709 9.33578 11.709H15.6639C16.101 11.709 16.4549 12.0629 16.4549 12.5V13.291H20.9046C21.2453 13.291 21.5473 13.0739 21.6554 12.7503L24.639 3.79883H18.0369V3.00781C18.0369 1.69934 16.9724 0.634766 15.6639 0.634766ZM8.54476 3.79883V3.00781C8.54476 2.57131 8.89928 2.2168 9.33578 2.2168H15.6639C16.1004 2.2168 16.4549 2.57131 16.4549 3.00781V3.79883H8.54476Z" fill="#646464"/>
</svg>
